<mxfile host="app.diagrams.net" agent="Mozilla/5.0 (X11; Linux x86_64) AppleWebKit/537.36 (KHTML, like Gecko) Chrome/128.0.0.0 Safari/537.36" version="24.7.15">
  <diagram name="Page-1" id="F3fQAGKga9oMP5JmTagn">
    <mxGraphModel dx="2214" dy="793" grid="1" gridSize="10" guides="1" tooltips="1" connect="1" arrows="1" fold="1" page="1" pageScale="1" pageWidth="850" pageHeight="1100" math="0" shadow="0">
      <root>
        <mxCell id="0" />
        <mxCell id="1" parent="0" />
        <mxCell id="6XoJzIgcjdnXIeTt4XoX-1" value="" style="ellipse;whiteSpace=wrap;html=1;aspect=fixed;strokeWidth=5;fontSize=18;fontStyle=1" vertex="1" parent="1">
          <mxGeometry x="420" y="160" width="320" height="320" as="geometry" />
        </mxCell>
        <mxCell id="6XoJzIgcjdnXIeTt4XoX-2" value="" style="endArrow=none;html=1;rounded=0;entryX=0;entryY=0;entryDx=0;entryDy=0;strokeWidth=5;fontSize=18;fontStyle=1" edge="1" parent="1" target="6XoJzIgcjdnXIeTt4XoX-1">
          <mxGeometry width="50" height="50" relative="1" as="geometry">
            <mxPoint x="260" y="40" as="sourcePoint" />
            <mxPoint x="630" y="380" as="targetPoint" />
          </mxGeometry>
        </mxCell>
        <mxCell id="6XoJzIgcjdnXIeTt4XoX-3" value="" style="endArrow=none;html=1;rounded=0;entryX=0.031;entryY=0.334;entryDx=0;entryDy=0;entryPerimeter=0;strokeWidth=5;fontSize=18;fontStyle=1" edge="1" parent="1" target="6XoJzIgcjdnXIeTt4XoX-1">
          <mxGeometry width="50" height="50" relative="1" as="geometry">
            <mxPoint x="220" y="160" as="sourcePoint" />
            <mxPoint x="477" y="217" as="targetPoint" />
          </mxGeometry>
        </mxCell>
        <mxCell id="6XoJzIgcjdnXIeTt4XoX-5" value="" style="endArrow=none;html=1;rounded=0;entryX=0;entryY=1;entryDx=0;entryDy=0;strokeWidth=5;fontSize=18;fontStyle=1" edge="1" parent="1" target="6XoJzIgcjdnXIeTt4XoX-1">
          <mxGeometry width="50" height="50" relative="1" as="geometry">
            <mxPoint x="260" y="600" as="sourcePoint" />
            <mxPoint x="442" y="396" as="targetPoint" />
          </mxGeometry>
        </mxCell>
        <mxCell id="6XoJzIgcjdnXIeTt4XoX-6" value="" style="endArrow=none;html=1;rounded=0;entryX=0;entryY=0.5;entryDx=0;entryDy=0;strokeWidth=5;fontSize=24;fontStyle=1" edge="1" parent="1" source="6XoJzIgcjdnXIeTt4XoX-13" target="6XoJzIgcjdnXIeTt4XoX-1">
          <mxGeometry width="50" height="50" relative="1" as="geometry">
            <mxPoint x="180" y="320" as="sourcePoint" />
            <mxPoint x="452" y="406" as="targetPoint" />
          </mxGeometry>
        </mxCell>
        <mxCell id="6XoJzIgcjdnXIeTt4XoX-7" value="" style="endArrow=none;html=1;rounded=0;entryX=1;entryY=0.5;entryDx=0;entryDy=0;strokeWidth=5;fontSize=18;fontStyle=1" edge="1" parent="1" target="6XoJzIgcjdnXIeTt4XoX-1">
          <mxGeometry width="50" height="50" relative="1" as="geometry">
            <mxPoint x="860" y="320" as="sourcePoint" />
            <mxPoint x="462" y="416" as="targetPoint" />
          </mxGeometry>
        </mxCell>
        <mxCell id="6XoJzIgcjdnXIeTt4XoX-8" value="" style="rounded=1;whiteSpace=wrap;html=1;strokeWidth=5;fontSize=18;fontStyle=1;fillColor=#cdeb8b;strokeColor=#36393d;" vertex="1" parent="1">
          <mxGeometry x="860" y="240" width="120" height="160" as="geometry" />
        </mxCell>
        <mxCell id="6XoJzIgcjdnXIeTt4XoX-9" value="" style="endArrow=none;html=1;rounded=0;entryX=1;entryY=0.5;entryDx=0;entryDy=0;strokeWidth=5;fontSize=18;fontStyle=1" edge="1" parent="1">
          <mxGeometry width="50" height="50" relative="1" as="geometry">
            <mxPoint x="1100" y="319.5" as="sourcePoint" />
            <mxPoint x="980" y="319.5" as="targetPoint" />
          </mxGeometry>
        </mxCell>
        <mxCell id="6XoJzIgcjdnXIeTt4XoX-10" value="w&lt;sub style=&quot;font-size: 24px;&quot;&gt;1&lt;/sub&gt;" style="rounded=0;whiteSpace=wrap;html=1;strokeWidth=5;fontSize=24;fontStyle=1;fillColor=#eeeeee;strokeColor=#36393d;" vertex="1" parent="1">
          <mxGeometry x="320" y="80" width="60" height="60" as="geometry" />
        </mxCell>
        <mxCell id="6XoJzIgcjdnXIeTt4XoX-12" value="w&lt;sub style=&quot;font-size: 24px;&quot;&gt;2&lt;/sub&gt;" style="rounded=0;whiteSpace=wrap;html=1;strokeWidth=5;fontSize=24;fontStyle=1;fillColor=#eeeeee;strokeColor=#36393d;" vertex="1" parent="1">
          <mxGeometry x="270" y="170" width="60" height="60" as="geometry" />
        </mxCell>
        <mxCell id="6XoJzIgcjdnXIeTt4XoX-14" value="" style="endArrow=none;html=1;rounded=0;entryX=0;entryY=0.5;entryDx=0;entryDy=0;strokeWidth=5;fontSize=18;fontStyle=1" edge="1" parent="1" target="6XoJzIgcjdnXIeTt4XoX-13">
          <mxGeometry width="50" height="50" relative="1" as="geometry">
            <mxPoint x="180" y="320" as="sourcePoint" />
            <mxPoint x="420" y="320" as="targetPoint" />
          </mxGeometry>
        </mxCell>
        <mxCell id="6XoJzIgcjdnXIeTt4XoX-13" value="w&lt;sub style=&quot;font-size: 24px;&quot;&gt;3&lt;/sub&gt;" style="rounded=0;whiteSpace=wrap;html=1;strokeWidth=5;fontSize=24;fontStyle=1;fillColor=#eeeeee;strokeColor=#36393d;" vertex="1" parent="1">
          <mxGeometry x="220" y="290" width="60" height="60" as="geometry" />
        </mxCell>
        <mxCell id="6XoJzIgcjdnXIeTt4XoX-16" value="w&lt;sub style=&quot;font-size: 24px;&quot;&gt;D&lt;/sub&gt;" style="rounded=0;whiteSpace=wrap;html=1;strokeWidth=5;fontSize=24;fontStyle=1;fillColor=#eeeeee;strokeColor=#36393d;" vertex="1" parent="1">
          <mxGeometry x="320" y="510" width="60" height="60" as="geometry" />
        </mxCell>
        <mxCell id="6XoJzIgcjdnXIeTt4XoX-18" style="edgeStyle=orthogonalEdgeStyle;rounded=0;orthogonalLoop=1;jettySize=auto;html=1;entryX=0.5;entryY=1;entryDx=0;entryDy=0;strokeWidth=5;fontSize=18;fontStyle=1" edge="1" parent="1" source="6XoJzIgcjdnXIeTt4XoX-17" target="6XoJzIgcjdnXIeTt4XoX-1">
          <mxGeometry relative="1" as="geometry" />
        </mxCell>
        <mxCell id="6XoJzIgcjdnXIeTt4XoX-17" value="bias" style="shape=parallelogram;perimeter=parallelogramPerimeter;whiteSpace=wrap;html=1;fixedSize=1;strokeWidth=5;fontSize=28;fontStyle=1;fillColor=#ffcc99;strokeColor=#36393d;" vertex="1" parent="1">
          <mxGeometry x="520" y="600" width="120" height="60" as="geometry" />
        </mxCell>
        <mxCell id="6XoJzIgcjdnXIeTt4XoX-22" value="..." style="text;html=1;align=center;verticalAlign=middle;whiteSpace=wrap;rounded=0;fontSize=70;rotation=90;" vertex="1" parent="1">
          <mxGeometry x="280" y="420" width="60" height="30" as="geometry" />
        </mxCell>
        <mxCell id="6XoJzIgcjdnXIeTt4XoX-26" style="edgeStyle=orthogonalEdgeStyle;rounded=0;orthogonalLoop=1;jettySize=auto;html=1;strokeWidth=5;" edge="1" parent="1">
          <mxGeometry relative="1" as="geometry">
            <mxPoint x="240" y="40" as="targetPoint" />
            <mxPoint x="50" y="39.5" as="sourcePoint" />
          </mxGeometry>
        </mxCell>
        <mxCell id="6XoJzIgcjdnXIeTt4XoX-24" value="&lt;font style=&quot;font-size: 28px;&quot;&gt;x&lt;sub&gt;1&lt;/sub&gt;&lt;/font&gt;" style="rounded=0;whiteSpace=wrap;html=1;fillColor=#d5e8d4;strokeColor=#82b366;strokeWidth=5;" vertex="1" parent="1">
          <mxGeometry x="-30" y="10" width="60" height="60" as="geometry" />
        </mxCell>
        <mxCell id="6XoJzIgcjdnXIeTt4XoX-27" style="edgeStyle=orthogonalEdgeStyle;rounded=0;orthogonalLoop=1;jettySize=auto;html=1;strokeWidth=5;" edge="1" parent="1">
          <mxGeometry relative="1" as="geometry">
            <mxPoint x="200" y="160" as="targetPoint" />
            <mxPoint x="50" y="160" as="sourcePoint" />
          </mxGeometry>
        </mxCell>
        <mxCell id="6XoJzIgcjdnXIeTt4XoX-28" value="&lt;font style=&quot;font-size: 28px;&quot;&gt;x&lt;sub&gt;1&lt;/sub&gt;&lt;/font&gt;" style="rounded=0;whiteSpace=wrap;html=1;fillColor=#d5e8d4;strokeColor=#82b366;strokeWidth=5;" vertex="1" parent="1">
          <mxGeometry x="-30" y="130" width="60" height="60" as="geometry" />
        </mxCell>
        <mxCell id="6XoJzIgcjdnXIeTt4XoX-29" style="edgeStyle=orthogonalEdgeStyle;rounded=0;orthogonalLoop=1;jettySize=auto;html=1;strokeWidth=5;" edge="1" parent="1">
          <mxGeometry relative="1" as="geometry">
            <mxPoint x="160" y="320" as="targetPoint" />
            <mxPoint x="50" y="320" as="sourcePoint" />
          </mxGeometry>
        </mxCell>
        <mxCell id="6XoJzIgcjdnXIeTt4XoX-30" value="&lt;font style=&quot;font-size: 28px;&quot;&gt;x&lt;sub&gt;1&lt;/sub&gt;&lt;/font&gt;" style="rounded=0;whiteSpace=wrap;html=1;fillColor=#d5e8d4;strokeColor=#82b366;strokeWidth=5;" vertex="1" parent="1">
          <mxGeometry x="-30" y="290" width="60" height="60" as="geometry" />
        </mxCell>
        <mxCell id="6XoJzIgcjdnXIeTt4XoX-31" style="edgeStyle=orthogonalEdgeStyle;rounded=0;orthogonalLoop=1;jettySize=auto;html=1;strokeWidth=5;" edge="1" parent="1">
          <mxGeometry relative="1" as="geometry">
            <mxPoint x="240" y="600" as="targetPoint" />
            <mxPoint x="50" y="600" as="sourcePoint" />
          </mxGeometry>
        </mxCell>
        <mxCell id="6XoJzIgcjdnXIeTt4XoX-32" value="&lt;font style=&quot;font-size: 28px;&quot;&gt;x&lt;sub&gt;1&lt;/sub&gt;&lt;/font&gt;" style="rounded=0;whiteSpace=wrap;html=1;fillColor=#d5e8d4;strokeColor=#82b366;strokeWidth=5;" vertex="1" parent="1">
          <mxGeometry x="-30" y="570" width="60" height="60" as="geometry" />
        </mxCell>
      </root>
    </mxGraphModel>
  </diagram>
</mxfile>
